<svg xmlns="http://www.w3.org/2000/svg" width="900" height="600" fill="none" viewBox="0 0 900 600"><path fill="transparent" d="M0 0h900v600H0z"/><path fill="url(#a)" d="M718.697 359.789c2.347 69.208-149.828 213.346-331.607 165.169-84.544-22.409-76.298-62.83-139.698-114.488-37.789-30.789-92.638-53.5-106.885-99.138-12.309-39.393-3.044-82.222 20.77-110.466 53.556-63.52 159.542-108.522 260.374-12.465 100.832 96.056 290.968-7.105 297.046 171.388z"/><path fill="#fff" fill-rule="evenodd" d="M629.602 207.307v-51.154c0-28.251-22.902-51.153-51.154-51.153H322.681c-28.251 0-51.153 22.902-51.153 51.153v127.884" clip-rule="evenodd"/><path stroke="#E1E4E5" stroke-width="4.13" d="M629.602 207.307v-51.154c0-28.251-22.902-51.153-51.154-51.153H322.681c-28.251 0-51.153 22.902-51.153 51.153v127.884"/><path fill="#fff" fill-rule="evenodd" stroke="#E1E4E5" stroke-width="4.13" d="M271.528 216.252h165.353a25.578 25.578 0 0 0 21.28-11.382l35.884-53.941a25.575 25.575 0 0 1 21.357-11.407h114.2c28.251 0 51.154 22.902 51.154 51.153v255.767c0 28.252-22.903 51.154-51.154 51.154H271.528c-28.251 0-51.154-22.902-51.154-51.154V267.405c0-28.251 22.903-51.153 51.154-51.153z" clip-rule="evenodd"/><path fill="#E1E4E5" fill-rule="evenodd" d="M320.022 432.016v3.968h3.964A3.028 3.028 0 0 1 327 439a3.028 3.028 0 0 1-3.014 3.016h-3.964v3.968a3.028 3.028 0 0 1-3.014 3.016 3.029 3.029 0 0 1-3.014-3.016v-3.951h-3.98a3.029 3.029 0 0 1-3.014-3.017 3.029 3.029 0 0 1 3.014-3.016h3.964v-3.984a3.031 3.031 0 0 1 3.03-3.016 3.028 3.028 0 0 1 3.014 3.016zm-33.14-27.793v5.554h5.748c2.399 0 4.37 1.905 4.37 4.223 0 2.318-1.971 4.223-4.37 4.223h-5.748v5.554c0 2.318-1.971 4.223-4.37 4.223s-4.37-1.905-4.37-4.223v-5.531h-5.772c-2.399 0-4.37-1.905-4.37-4.223 0-2.318 1.971-4.223 4.37-4.223h5.748v-5.577c0-2.318 1.971-4.223 4.394-4.223 2.399 0 4.37 1.905 4.37 4.223z" clip-rule="evenodd"/><circle cx="451.101" cy="358.294" r="98.899" fill="#aaa"/><rect width="13.918" height="71.734" x="444.142" y="322.427" fill="#fff" rx="6.959"/><rect width="13.918" height="71.734" x="486.968" y="351.335" fill="#fff" rx="6.959" transform="rotate(90 486.968 351.335)"/><ellipse fill="#E1E4E5" rx="13.917" ry="13.254" transform="matrix(-1 0 0 1 718.227 479.149)"/><circle r="4.639" fill="#E1E4E5" transform="matrix(-1 0 0 1 292.465 519.783)"/><circle r="6.627" fill="#E1E4E5" transform="matrix(-1 0 0 1 566.399 205.929)"/><circle r="6.476" fill="#E1E4E5" transform="scale(1 -1) rotate(-75 -180.786 -314.12)"/><circle r="8.615" fill="#E1E4E5" transform="matrix(-1 0 0 1 217.158 114.719)"/><ellipse fill="#E1E4E5" rx="6.627" ry="5.302" transform="matrix(-1 0 0 1 704.513 233.511)"/><path fill="#E1E4E5" d="M186.177 456.259h.174c1.026 14.545 11.844 14.769 11.844 14.769s-11.929.233-11.929 17.04c0-16.807-11.929-17.04-11.929-17.04s10.814-.224 11.84-14.769zm574.334-165.951h.18c1.067 15.36 12.309 15.596 12.309 15.596s-12.397.246-12.397 17.994c0-17.748-12.396-17.994-12.396-17.994s11.237-.236 12.304-15.596z"/><defs><linearGradient id="a" x1="530.485" x2="277.414" y1="779.032" y2="-357.319" gradientUnits="userSpaceOnUse"><stop stop-color="#fff"/><stop offset="1" stop-color="#EEE"/></linearGradient></defs></svg>